<svg xmlns="http://www.w3.org/2000/svg" xmlns:xlink="http://www.w3.org/1999/xlink" version="1.1" x="0px" y="0px" viewBox="0 0 100 100" style="enable-background:new 0 0 100 100;" xml:space="preserve"><g><path d="M13.8,58.5l18,18c2.3,2.3,5.4,3.5,8.5,3.5c3.1,0,6.1-1.2,8.5-3.5l28.3-28.3c0.4-0.4,0.6-0.9,0.6-1.4s-0.2-1-0.6-1.4   L45,13.2c-0.8-0.8-2-0.8-2.8,0L27.2,28.1c-0.1,0-0.1,0-0.2,0H16.1c-3.1,0-5.6,2.7-5.6,6.1c0,3,2,5.5,4.5,6l-1.3,1.3   C9.2,46.2,9.2,53.8,13.8,58.5z M72.8,46.7L45.9,73.6c-1.5,1.5-3.5,2.3-5.7,2.3c-2.1,0-4.1-0.8-5.7-2.3l-18-18   c-1.5-1.5-2.3-3.5-2.3-5.7c0-2.1,0.8-4.1,2.3-5.7l4-4h27.8c0.7,1.5,2.2,2.5,4,2.5c2.5,0,4.5-2,4.5-4.5c0-2.5-2-4.5-4.5-4.5   c-1.7,0-3.2,1-4,2.5H24.7l18.9-18.9L72.8,46.7z M16.1,36.3c-0.9,0-1.6-1-1.6-2.1c0-1.1,0.7-2.1,1.6-2.1h7.1L19,36.3H16.1z"></path><path d="M75.6,54.1c-1.1,1.5-10.9,14.4-10.9,20.7c0,6.9,5.6,12.5,12.5,12.5s12.5-5.6,12.5-12.5c0-6.3-9.8-19.3-10.9-20.7   C78,53.2,76.3,53.2,75.6,54.1z"></path></g></svg>