<svg xmlns="http://www.w3.org/2000/svg" xmlns:xlink="http://www.w3.org/1999/xlink" version="1.1" x="0px" y="0px" viewBox="1 -1 100 100" style="enable-background:new 1 -1 100 100;" xml:space="preserve"><title>56</title><g><path d="M92.5,67h-5.2V51.9c0-1.7-1.3-3-3-3H53.8V34H60c1.7,0,3-1.3,3-3V13c0-1.7-1.3-3-3-3H42c-1.7,0-3,1.3-3,3v18   c0,1.7,1.3,3,3,3h5.8v14.9H17.7c-1.7,0-3,1.3-3,3V67H9.5c-1.7,0-3,1.3-3,3v15c0,1.7,1.3,3,3,3h16c1.7,0,3-1.3,3-3V70   c0-1.7-1.3-3-3-3h-4.8V54.9h27.1V67H43c-1.7,0-3,1.3-3,3v15c0,1.7,1.3,3,3,3h16c1.7,0,3-1.3,3-3V70c0-1.7-1.3-3-3-3h-5.2V54.9h27.5   V67h-5.8c-1.7,0-3,1.3-3,3v15c0,1.7,1.3,3,3,3h17c1.7,0,3-1.3,3-3V70C95.5,68.3,94.2,67,92.5,67z"></path></g></svg>